<?xml version="1.0" standalone="no"?>
<!DOCTYPE svg PUBLIC "-//W3C//DTD SVG 20010904//EN"
 "http://www.w3.org/TR/2001/REC-SVG-20010904/DTD/svg10.dtd">
<svg version="1.0" xmlns="http://www.w3.org/2000/svg"
 width="512.000000pt" height="512.000000pt" viewBox="0 0 512.000000 512.000000"
 preserveAspectRatio="xMidYMid meet">
<metadata>
Created by potrace 1.11, written by Peter Selinger 2001-2013
</metadata>
<g transform="translate(0.000000,512.000000) scale(0.100000,-0.100000)"
fill="#000000" stroke="none">
<path d="M0 3157 c0 -1951 0 -1962 20 -1975 25 -15 26 -30 2 -28 -16 1 -17
-18 -19 -259 l-2 -260 49 -24 c28 -13 50 -28 50 -33 0 -12 -6 -10 -46 17 -49
33 -56 32 -52 -11 3 -33 8 -38 45 -53 42 -16 76 -41 57 -41 -5 0 -18 6 -29 14
-11 7 -32 16 -46 19 l-25 6 -3 -136 c-2 -104 1 -138 11 -144 10 -7 10 -9 1 -9
-10 0 -13 -29 -13 -110 0 -81 3 -110 13 -110 9 0 9 -2 -1 -9 -8 -5 78 -9 198
-10 l213 -2 -6 65 c-3 36 -11 74 -17 86 -6 12 -9 26 -7 33 3 7 11 -3 18 -20 8
-18 17 -33 21 -33 4 0 8 -30 8 -67 0 -36 3 -64 6 -60 3 3 6 34 7 69 0 35 2 53
5 41 5 -30 16 -29 30 2 12 25 32 34 32 14 0 -7 -8 -26 -19 -43 -10 -17 -21
-43 -25 -59 l-6 -27 1025 0 1026 0 -6 60 c-3 33 -7 86 -10 118 -3 31 -24 125
-46 207 -57 211 -68 255 -62 255 3 0 0 7 -7 14 -6 8 -14 30 -17 48 -3 18 -26
78 -53 133 -26 55 -51 113 -54 129 l-7 28 -29 -32 c-17 -19 -33 -30 -37 -26
-4 4 5 18 20 32 29 27 29 55 -1 101 -7 12 -12 28 -10 35 3 7 17 -9 32 -35 16
-26 30 -46 32 -44 12 11 -116 285 -150 322 -14 15 -28 41 -32 58 -3 18 -20 57
-37 87 -54 98 -64 113 -70 98 -9 -25 -30 47 -33 116 -2 40 -10 78 -19 92 -13
20 -13 24 -1 24 14 0 24 -20 51 -110 17 -56 148 -332 171 -360 42 -51 143
-302 160 -395 4 -22 27 -82 51 -133 24 -52 47 -110 53 -130 5 -21 16 -66 25
-102 24 -95 36 -140 51 -189 8 -25 14 -55 14 -67 0 -12 6 -29 13 -36 6 -7 13
-35 14 -63 1 -27 5 -74 9 -104 5 -39 4 -52 -4 -47 -8 5 -10 1 -6 -8 3 -9 8
-16 9 -16 2 0 20 30 41 68 20 37 48 81 60 97 12 17 27 41 33 55 6 14 15 32 21
40 5 8 30 58 55 110 25 52 52 106 60 120 8 14 15 33 15 42 0 9 5 20 10 23 6 4
26 39 46 78 19 40 51 97 70 127 19 30 39 64 45 75 5 11 15 29 22 40 34 54 41
73 43 106 2 40 14 70 80 204 24 50 51 122 59 160 28 134 62 254 77 272 6 7 8
18 5 25 -3 7 -6 4 -6 -7 -1 -17 -3 -17 -11 -5 -14 21 -12 30 4 30 18 0 24 27
15 65 -6 28 -7 28 -8 5 l-2 -25 -10 25 c-8 19 -6 27 6 36 14 10 14 12 0 18 -9
3 -15 18 -15 39 0 18 -4 37 -10 43 -10 10 -2 54 10 54 4 0 10 -18 14 -39 3
-22 14 -46 25 -53 10 -7 26 -28 35 -45 9 -18 22 -33 29 -33 8 0 7 -4 -3 -10
-12 -8 -12 -11 3 -28 18 -20 23 -42 8 -42 -5 0 -18 11 -29 25 -31 39 -31 38
-23 -52 1 -7 8 -13 18 -13 14 0 14 -2 -2 -20 -10 -11 -24 -20 -31 -20 -8 0
-11 -6 -8 -15 4 -8 1 -15 -7 -15 -7 0 -10 -3 -7 -6 4 -3 -5 -38 -19 -77 -13
-39 -22 -79 -20 -89 3 -10 1 -20 -3 -23 -5 -3 -11 -24 -15 -48 -3 -23 -28 -87
-56 -142 -50 -102 -73 -175 -51 -161 7 4 12 4 12 0 0 -10 -75 -147 -115 -210
-18 -28 -36 -61 -40 -75 -4 -13 -25 -61 -47 -106 -27 -57 -37 -90 -33 -105 5
-17 4 -19 -4 -8 -13 19 -21 10 -32 -39 -5 -22 -27 -69 -49 -103 -22 -35 -51
-84 -64 -109 -13 -25 -32 -52 -41 -59 -10 -8 -28 -37 -42 -65 -42 -85 -60
-116 -87 -146 -39 -43 -34 -50 36 -47 56 3 63 5 79 33 9 17 38 66 63 110 26
44 49 91 53 105 3 14 14 34 23 45 31 35 72 117 108 215 19 52 45 124 59 160
13 36 29 79 35 95 6 17 18 34 27 39 31 18 141 130 141 143 0 7 4 13 8 13 4 0
6 16 4 36 -4 28 1 41 23 64 15 16 33 26 41 23 8 -3 21 7 31 25 16 27 26 34 56
40 4 1 23 8 42 16 20 9 41 13 48 10 7 -2 24 4 37 16 29 25 59 28 39 4 -18 -22
-116 -66 -137 -62 -18 3 -62 -33 -62 -51 0 -6 -6 -11 -13 -11 -21 0 -80 -67
-83 -94 -1 -14 -15 -42 -30 -63 -30 -41 -124 -132 -136 -133 -5 0 -8 -6 -8
-12 0 -7 -20 -65 -44 -128 -57 -150 -59 -154 -61 -160 -13 -53 -55 -142 -74
-160 -9 -8 -27 -39 -72 -125 -23 -44 -45 -84 -49 -90 -4 -5 -20 -31 -34 -58
l-27 -47 895 0 895 0 3 161 c3 145 5 162 22 175 26 19 32 10 12 -18 -18 -26
-21 -55 -5 -60 7 -2 7 -12 -1 -32 -11 -30 -12 -216 0 -216 3 0 22 18 41 40 19
22 40 40 48 40 8 0 -5 -19 -28 -41 -40 -39 -51 -67 -14 -38 11 9 14 10 9 1 -4
-7 -2 -12 8 -12 20 0 31 20 16 30 -8 5 3 19 33 44 24 20 49 36 55 36 6 0 12 4
14 8 3 9 93 72 102 72 3 0 23 17 44 38 22 22 48 42 58 46 29 11 -85 -95 -149
-138 -31 -22 -57 -43 -57 -47 0 -4 -10 -11 -22 -15 -33 -9 -58 -34 -58 -56 0
-17 13 -18 220 -18 121 0 220 4 220 8 0 5 16 16 35 25 l35 17 0 144 c0 95 -4
147 -11 152 -8 4 -7 9 2 15 10 6 11 11 3 17 -6 4 -14 17 -18 30 -4 12 -11 22
-16 22 -16 0 -37 53 -45 110 -9 68 -42 122 -69 114 -15 -5 -18 -3 -13 10 4 10
1 16 -8 16 -8 0 -15 4 -15 9 0 5 -8 11 -19 14 -12 3 -32 -9 -59 -37 -60 -59
-72 -74 -72 -83 0 -5 -13 -23 -30 -41 -16 -18 -30 -40 -30 -48 0 -8 -5 -12
-11 -8 -15 9 -1 55 22 72 22 16 25 32 5 32 -8 0 -24 -14 -36 -30 -12 -17 -28
-30 -36 -30 -18 0 17 54 56 85 42 34 115 105 108 105 -4 0 -4 10 1 23 6 15 4
26 -6 36 -12 11 -12 15 -3 21 8 5 10 16 6 26 -5 14 -4 16 4 8 6 -6 12 -19 14
-28 1 -9 5 -16 9 -16 4 0 18 0 31 0 23 0 24 2 15 28 -10 29 -71 71 -77 53 -2
-6 -8 -11 -14 -11 -6 0 -8 7 -4 15 3 9 0 15 -10 15 -12 0 -13 -4 -4 -21 12
-22 6 -39 -9 -23 -11 10 -14 28 -12 63 1 27 15 24 63 -12 70 -52 88 -75 88
-110 0 -42 8 -67 23 -67 27 0 86 -79 106 -143 11 -36 30 -85 43 -109 l23 -43
3 2344 c1 1289 1 2346 -1 2348 -2 2 -521 2 -1153 1 l-1149 -3 75 -37 c72 -36
109 -57 215 -123 74 -46 224 -203 272 -282 64 -110 115 -258 129 -378 2 -16
10 -66 18 -110 17 -94 12 -336 -8 -415 -7 -27 -11 -50 -9 -50 2 0 20 7 40 15
46 19 73 19 99 -3 40 -32 46 -58 39 -156 -4 -50 -14 -109 -21 -131 -8 -22 -26
-76 -40 -120 -27 -83 -104 -258 -111 -251 -2 2 2 25 8 51 11 42 10 50 -4 60
-15 11 -13 19 20 85 21 42 38 93 41 121 5 53 20 74 29 40 9 -37 23 -11 23 44
0 30 4 56 8 59 14 9 11 164 -3 176 -14 12 -101 -5 -111 -21 -3 -5 -12 -9 -21
-9 -8 0 -26 -9 -40 -20 -28 -21 -53 -26 -53 -10 0 6 6 10 13 10 8 0 14 12 14
33 0 17 5 66 12 107 14 93 20 205 11 189 -17 -27 -16 18 1 49 10 17 16 32 13
32 -4 0 0 7 7 16 11 14 10 18 -6 30 -10 8 -21 11 -24 8 -3 -4 0 -9 7 -11 16
-6 16 -29 -1 -36 -14 -5 -16 50 -3 72 5 7 0 21 -10 32 -14 15 -16 24 -8 37 8
13 6 20 -9 32 -17 14 -18 19 -6 37 10 18 11 24 0 37 -11 13 -11 19 -1 31 10
12 10 18 0 30 -7 8 -10 21 -7 30 4 8 2 17 -3 20 -12 8 -33 -32 -24 -48 5 -9 4
-9 -6 0 -10 10 -10 18 0 42 15 37 5 107 -21 140 -11 13 -19 30 -19 37 0 7 -9
18 -20 24 -11 6 -20 19 -20 30 0 11 -9 24 -21 30 -12 7 -18 18 -15 26 3 8 -1
17 -9 20 -8 4 -15 14 -15 24 0 11 -4 22 -10 25 -6 4 -10 -5 -10 -19 0 -14 -4
-26 -10 -26 -5 0 -10 5 -10 12 0 6 -8 20 -17 31 -17 19 -17 20 0 14 11 -4 16
-3 12 3 -3 6 -13 10 -21 10 -8 0 -14 9 -14 20 0 21 -4 24 -50 34 -14 3 -45 24
-68 47 -24 22 -46 38 -49 35 -3 -3 -13 2 -22 12 -9 9 -25 18 -36 19 -46 6 -55
10 -76 37 -12 16 -27 25 -36 22 -8 -3 -11 -1 -8 4 3 6 -4 10 -17 10 -13 0 -31
9 -41 20 -22 26 -51 27 -42 1 5 -15 1 -19 -20 -17 -23 1 -37 16 -15 16 6 0 10
5 10 10 0 6 -13 10 -29 10 -16 0 -37 7 -46 16 -14 14 -20 15 -41 3 -21 -11
-29 -11 -46 0 -17 11 -22 10 -29 -1 -6 -10 -9 -10 -9 -1 0 9 -21 13 -71 12
-45 -1 -66 -4 -58 -10 10 -6 8 -9 -8 -9 -13 0 -23 5 -23 10 0 23 -45 8 -76
-25 -18 -19 -35 -31 -38 -26 -3 5 5 20 19 35 l24 26 -32 0 c-24 0 -28 -3 -17
-10 17 -11 20 -10 -87 -36 -40 -10 -73 -22 -73 -26 0 -5 -13 -14 -30 -19 -32
-12 -40 -29 -14 -29 14 0 14 -2 3 -16 -8 -10 -15 -12 -17 -5 -5 16 -22 14 -22
-3 0 -18 -33 -30 -59 -21 -14 4 -22 -3 -35 -29 -19 -40 -36 -55 -36 -32 0 9
-4 16 -10 16 -5 0 -10 -7 -10 -15 0 -8 -7 -15 -15 -15 -8 0 -15 -6 -15 -12 0
-7 -23 -38 -51 -68 -27 -30 -59 -71 -69 -91 -11 -20 -26 -39 -35 -42 -9 -4
-15 -19 -15 -37 0 -16 -4 -30 -10 -30 -5 0 -10 -7 -10 -16 0 -31 -35 -114 -47
-114 -7 0 -13 -4 -13 -10 0 -5 5 -10 11 -10 6 0 8 -7 5 -17 -11 -27 -43 -154
-51 -198 -4 -22 -11 -45 -17 -52 -5 -6 -12 -61 -15 -122 -5 -84 -2 -127 11
-183 9 -40 24 -104 33 -141 8 -37 17 -66 19 -64 2 2 -8 57 -22 123 -14 65 -28
162 -31 214 -5 83 -3 97 12 110 16 14 17 11 11 -35 -7 -45 9 -166 44 -335 l7
-35 11 28 c7 16 12 35 12 43 0 17 17 19 23 2 5 -15 107 90 107 110 0 6 5 12
11 12 6 0 9 -9 6 -20 -5 -21 11 -27 29 -11 5 5 19 12 31 16 18 5 22 3 17 -9
-3 -9 -10 -14 -14 -11 -5 3 -25 -5 -46 -17 -20 -12 -32 -24 -26 -26 20 -6 13
-22 -9 -22 -17 0 -20 -5 -16 -21 4 -16 3 -18 -9 -8 -13 10 -18 6 -15 -13 0 -5
-4 -8 -10 -8 -8 0 -8 -5 1 -15 10 -12 9 -15 -8 -15 -12 0 -22 -9 -26 -23 -8
-33 9 -128 25 -138 12 -8 12 -10 0 -18 -7 -5 -10 -14 -7 -20 11 -16 26 -13 20
4 -4 9 0 15 8 15 8 0 21 11 28 25 7 13 16 22 21 20 4 -3 15 2 23 11 9 8 16 11
16 4 0 -6 -10 -15 -23 -21 -33 -15 -67 -96 -54 -132 5 -15 6 -40 1 -55 -10
-36 -6 -145 7 -204 8 -34 7 -52 -1 -68 -8 -14 -8 -20 -1 -16 5 4 19 -2 31 -14
18 -18 18 -20 3 -21 -10 -1 1 -5 25 -11 45 -10 51 -29 6 -20 -19 3 -30 0 -36
-12 -9 -16 -11 -16 -24 1 -18 24 -17 13 2 -53 14 -50 26 -65 37 -46 2 4 2 0 0
-8 -2 -8 -6 -41 -8 -73 -3 -50 -1 -56 11 -46 11 9 14 8 14 -4 0 -9 -5 -19 -10
-22 -5 -3 -10 -17 -10 -31 0 -14 -4 -22 -10 -19 -5 3 -10 21 -10 39 0 24 -6
36 -23 45 -20 11 -26 28 -41 109 -24 133 -31 151 -76 201 -35 39 -78 132 -72
154 2 7 0 8 -58 10 -64 3 -48 67 18 69 23 1 32 8 45 40 11 23 31 47 53 60 l35
21 -7 56 c-9 75 -14 77 -14 6 0 -50 -2 -57 -13 -45 -7 8 -19 40 -27 70 -7 30
-23 88 -36 127 -63 193 -75 363 -39 523 9 41 20 103 25 137 11 86 77 291 106
330 13 17 24 36 24 42 0 6 12 23 28 39 15 16 28 36 30 45 5 27 105 134 142
151 14 6 43 23 65 39 22 15 58 40 79 55 21 15 53 35 70 44 29 16 -23 17 -996
18 l-1028 0 0 -1963z m2620 1923 c13 -8 13 -10 -2 -10 -9 0 -20 5 -23 10 -8
13 5 13 25 0z m-140 -10 c-19 -13 -30 -13 -30 0 0 6 10 10 23 10 18 0 19 -2 7
-10z m-330 -27 c-8 -3 -21 -10 -27 -16 -9 -7 -13 -5 -13 7 0 11 8 16 28 15 15
0 21 -3 12 -6z m-67 -18 c-3 -9 -8 -14 -10 -11 -3 3 -2 9 2 15 9 16 15 13 8
-4z m-26 -21 c-3 -3 -12 -4 -19 -1 -8 3 -5 6 6 6 11 1 17 -2 13 -5z m-117 -78
c0 -2 -7 -6 -15 -10 -8 -3 -15 -1 -15 4 0 6 7 10 15 10 8 0 15 -2 15 -4z
m1150 -86 c0 -5 -2 -10 -4 -10 -3 0 -8 5 -11 10 -3 6 -1 10 4 10 6 0 11 -4 11
-10z m-1250 -10 c0 -5 -10 -10 -22 -10 -19 0 -20 2 -8 10 19 13 30 13 30 0z
m1295 0 c3 -5 1 -10 -4 -10 -6 0 -11 5 -11 10 0 6 2 10 4 10 3 0 8 -4 11 -10z
m-564 -23 c-10 -9 -11 -8 -5 6 3 10 9 15 12 12 3 -3 0 -11 -7 -18z m-246 -17
c3 -5 1 -10 -4 -10 -6 0 -11 5 -11 10 0 6 2 10 4 10 3 0 8 -4 11 -10z m-591
-87 c-4 -16 -11 -29 -16 -31 -4 -2 -8 -8 -8 -14 0 -5 -9 -23 -21 -39 -32 -45
-81 -140 -90 -174 -56 -211 -77 -287 -82 -291 -7 -8 2 74 13 111 4 17 11 48
15 70 12 75 48 180 82 236 18 31 37 67 43 80 30 71 78 109 64 52z m149 20 c-7
-2 -19 -2 -25 0 -7 3 -2 5 12 5 14 0 19 -2 13 -5z m-128 -43 c1 -10 -2 -17 -7
-14 -4 3 -8 15 -8 26 0 26 13 15 15 -12z m1514 -34 c10 -12 8 -13 -8 -9 -12 3
-18 9 -15 14 7 12 10 11 23 -5z m-179 -42 c0 -8 9 -14 20 -14 15 0 20 -6 19
-27 0 -27 -1 -27 -11 -6 -6 12 -18 23 -28 26 -9 2 -19 16 -22 31 -4 21 -3 24
8 15 8 -6 14 -18 14 -25z m-1330 1 c-7 -9 -15 -13 -18 -10 -3 2 1 11 8 20 7 9
15 13 18 10 3 -2 -1 -11 -8 -20z m1540 0 c0 -8 -2 -15 -4 -15 -2 0 -6 7 -10
15 -3 8 -1 15 4 15 6 0 10 -7 10 -15z m17 -27 c-3 -8 -6 -5 -6 6 -1 11 2 17 5
13 3 -3 4 -12 1 -19z m43 -54 c0 -8 -4 -12 -10 -9 -5 3 -10 13 -10 21 0 8 5
12 10 9 6 -3 10 -13 10 -21z m-192 -34 c7 -11 11 -20 9 -20 -2 0 -12 9 -22 20
-10 11 -14 20 -9 20 5 0 15 -9 22 -20z m-1408 -40 c0 -5 -5 -10 -11 -10 -5 0
-7 5 -4 10 3 6 8 10 11 10 2 0 4 -4 4 -10z m-77 -85 c-3 -9 -8 -14 -10 -11 -3
3 -2 9 2 15 9 16 15 13 8 -4z m57 -75 c0 -5 -5 -10 -11 -10 -5 0 -7 5 -4 10 3
6 8 10 11 10 2 0 4 -4 4 -10z m-70 -45 c-20 -20 -36 -31 -39 -24 -2 6 9 22 25
35 44 36 52 29 14 -11z m597 29 c-3 -3 -12 -4 -19 -1 -8 3 -5 6 6 6 11 1 17
-2 13 -5z m333 -44 c-8 -5 -28 -9 -45 -9 -29 1 -29 1 -5 9 14 4 34 8 45 9 16
1 17 -1 5 -9z m-83 -16 c-3 -3 -12 -4 -19 -1 -8 3 -5 6 6 6 11 1 17 -2 13 -5z
m-552 -84 c14 -6 -3 -8 -50 -8 -60 1 -64 2 -30 8 55 10 57 10 80 0z m1309 -6
c3 -8 2 -12 -4 -9 -6 3 -10 10 -10 16 0 14 7 11 14 -7z m-1174 -4 c0 -5 -22
-10 -50 -10 -27 0 -50 5 -50 10 0 6 23 10 50 10 28 0 50 -4 50 -10z m-263 -6
c-3 -3 -12 -4 -19 -1 -8 3 -5 6 6 6 11 1 17 -2 13 -5z m-229 -94 c13 -44 16
-108 5 -136 -9 -23 -32 73 -33 134 0 53 11 54 28 2z m1012 -30 c0 -5 -7 -10
-15 -10 -8 0 -15 5 -15 10 0 6 7 10 15 10 8 0 15 -4 15 -10z m93 3 c-7 -2 -19
-2 -25 0 -7 3 -2 5 12 5 14 0 19 -2 13 -5z m-46 -9 c-3 -3 -12 -4 -19 -1 -8 3
-5 6 6 6 11 1 17 -2 13 -5z m317 -19 c9 -13 16 -30 16 -37 -1 -7 -8 -1 -16 15
-8 15 -19 27 -24 27 -6 0 -10 5 -10 10 0 18 17 10 34 -15z m-197 9 c-3 -3 -12
-4 -19 -1 -8 3 -5 6 6 6 11 1 17 -2 13 -5z m-947 -34 c0 -5 -9 -10 -21 -10
-11 0 -17 5 -14 10 3 6 13 10 21 10 8 0 14 -4 14 -10z m-293 -22 c-3 -8 -6 -5
-6 6 -1 11 2 17 5 13 3 -3 4 -12 1 -19z m1541 -13 c-3 -3 -9 2 -12 12 -6 14
-5 15 5 6 7 -7 10 -15 7 -18z m-1235 -16 l22 0 -22 -9 c-13 -5 -23 -16 -23
-24 0 -8 -5 -18 -12 -22 -7 -4 -8 -3 -4 4 13 22 -12 12 -35 -13 -31 -32 -44
-32 -24 -1 9 14 29 29 44 34 24 8 28 15 25 39 -2 15 -1 20 2 11 3 -10 15 -18
27 -19z m1452 -3 c3 -11 5 -30 5 -41 0 -11 4 -54 9 -95 6 -41 10 -80 10 -87 1
-9 11 -8 37 3 34 14 36 14 30 -1 -3 -9 -2 -24 3 -34 5 -9 12 -39 15 -66 4 -27
8 -57 11 -66 3 -9 1 -27 -4 -40 -9 -22 -10 -21 -10 14 -1 20 -5 37 -10 37 -4
0 -8 12 -8 28 0 45 -7 92 -14 92 -4 0 -12 -7 -19 -15 -11 -13 -10 -28 2 -80 9
-35 15 -93 14 -129 -2 -53 0 -63 11 -54 7 6 13 17 13 24 0 8 7 14 15 14 19 0
20 -24 1 -39 -15 -12 -30 -65 -27 -93 1 -10 -3 -18 -8 -18 -6 0 -11 19 -12 43
0 35 -2 38 -9 20 -16 -39 -20 -26 -13 42 6 62 -15 248 -26 243 -4 -2 -29 -15
-57 -30 -27 -14 -66 -29 -85 -33 -30 -6 -35 -4 -36 14 -1 12 3 21 8 21 6 0 7
-5 3 -11 -4 -7 2 -9 17 -7 29 4 39 38 12 38 -17 1 -17 2 2 16 11 8 28 13 39
10 17 -4 63 18 77 37 3 5 0 38 -8 75 -7 36 -12 91 -11 121 1 31 -1 62 -6 69
-5 8 -2 10 9 6 8 -4 17 -16 20 -28z m-1692 -51 c-3 -9 -8 -14 -10 -11 -3 3 -2
9 2 15 9 16 15 13 8 -4z m280 -102 c-7 -2 -21 -2 -30 0 -10 3 -4 5 12 5 17 0
24 -2 18 -5z m-106 -9 c-3 -3 -12 -4 -19 -1 -8 3 -5 6 6 6 11 1 17 -2 13 -5z
m170 0 c-3 -3 -12 -4 -19 -1 -8 3 -5 6 6 6 11 1 17 -2 13 -5z m28 -57 c6 -6 0
-6 -15 -2 -14 4 -32 14 -40 22 -13 13 -11 13 15 2 17 -7 35 -17 40 -22z m825
13 c0 -5 -4 -10 -10 -10 -5 0 -10 5 -10 10 0 6 5 10 10 10 6 0 10 -4 10 -10z
m-907 -7 c-7 -2 -19 -2 -25 0 -7 3 -2 5 12 5 14 0 19 -2 13 -5z m125 -13 c7
-11 8 -20 2 -20 -5 0 -14 9 -20 20 -6 11 -7 20 -3 20 5 0 14 -9 21 -20z m749
14 c-3 -3 -12 -4 -19 -1 -8 3 -5 6 6 6 11 1 17 -2 13 -5z m-1117 -34 c0 -5 -4
-10 -10 -10 -5 0 -10 5 -10 10 0 6 5 10 10 10 6 0 10 -4 10 -10z m1055 -10
c-3 -5 -11 -10 -16 -10 -6 0 -7 5 -4 10 3 6 11 10 16 10 6 0 7 -4 4 -10z
m-525 -96 c0 -7 -6 -14 -14 -17 -9 -4 -12 0 -10 11 3 10 -9 31 -26 49 -44 47
-37 53 10 8 22 -21 40 -44 40 -51z m490 71 c0 -8 -4 -15 -10 -15 -5 0 -10 7
-10 15 0 8 5 15 10 15 6 0 10 -7 10 -15z m30 -9 c0 -8 -4 -17 -8 -20 -4 -2 -8
4 -8 15 0 10 4 19 8 19 4 0 8 -6 8 -14z m40 10 c0 -2 -7 -7 -16 -10 -8 -3 -12
-2 -9 4 6 10 25 14 25 6z m130 -46 c0 -10 -4 -22 -10 -25 -6 -4 -10 7 -10 25
0 18 4 29 10 25 6 -3 10 -15 10 -25z m50 2 c0 -15 -2 -15 -10 -2 -13 20 -13
33 0 25 6 -3 10 -14 10 -23z m200 -15 c0 -6 -9 -2 -20 8 -11 10 -20 23 -20 28
0 6 9 2 20 -8 11 -10 20 -23 20 -28z m-1350 29 c0 -2 -7 -7 -16 -10 -8 -3 -12
-2 -9 4 6 10 25 14 25 6z m65 -15 c-11 -4 -33 -11 -50 -14 l-30 -6 30 14 c17
8 39 14 50 14 l20 0 -20 -8z m1265 -43 c0 -18 -27 11 -33 35 -6 22 -6 22 14
-2 10 -13 19 -28 19 -33z m-1370 38 c0 -3 -4 -8 -10 -11 -5 -3 -10 -1 -10 4 0
6 5 11 10 11 6 0 10 -2 10 -4z m84 -42 c3 -9 6 -26 6 -38 0 -32 22 -74 45 -85
14 -7 15 -10 5 -10 -22 -1 -35 10 -58 48 -16 26 -18 39 -11 53 8 15 5 20 -16
28 -32 12 -32 20 -1 20 13 0 27 -7 30 -16z m103 10 c-3 -3 -12 -4 -19 -1 -8 3
-5 6 6 6 11 1 17 -2 13 -5z m-203 -49 c-1 -25 2 -47 7 -50 5 -4 9 2 9 12 0 11
6 25 13 32 10 11 10 14 0 18 -7 3 -13 9 -13 15 0 6 6 5 15 -2 9 -7 13 -20 10
-28 -4 -10 5 -24 21 -37 32 -25 24 -49 -12 -42 -31 6 -30 -2 6 -48 34 -42 37
-55 15 -55 -8 0 -15 5 -15 10 0 6 -11 10 -24 10 -19 0 -26 7 -31 31 -4 18 -3
35 4 42 15 15 14 27 -2 27 -7 0 -20 17 -29 38 -15 34 -15 38 1 54 25 26 29 22
25 -27z m1006 30 c7 -9 8 -15 2 -15 -5 0 -12 7 -16 15 -3 8 -4 15 -2 15 2 0 9
-7 16 -15z m-530 -4 c0 -4 31 -7 69 -6 37 2 83 0 102 -4 29 -7 22 -9 -51 -18
-54 -6 -70 -11 -45 -12 65 -2 68 -16 5 -18 -49 -1 -58 1 -53 14 5 12 1 14 -17
8 -16 -5 -20 -4 -15 4 4 7 1 18 -5 26 -9 11 -9 15 -1 15 6 0 11 -4 11 -9z
m1290 -22 c0 -5 -9 -4 -19 3 -11 7 -17 16 -14 20 5 10 33 -10 33 -23z m-1050
7 c0 -3 -4 -8 -10 -11 -5 -3 -10 -1 -10 4 0 6 5 11 10 11 6 0 10 -2 10 -4z
m343 -3 c-7 -2 -19 -2 -25 0 -7 3 -2 5 12 5 14 0 19 -2 13 -5z m-603 -33 c0
-5 -7 -10 -15 -10 -8 0 -15 5 -15 10 0 6 7 10 15 10 8 0 15 -4 15 -10z m250
-5 c7 -8 8 -15 2 -15 -5 0 -15 7 -22 15 -7 8 -8 15 -2 15 5 0 15 -7 22 -15z
m690 -84 c-6 -22 -22 -54 -36 -70 -57 -69 -227 -132 -347 -130 l-62 1 91 13
c95 13 219 49 230 67 4 7 2 8 -4 4 -7 -4 -12 -3 -12 1 0 5 10 14 23 22 20 13
21 13 8 -2 -14 -18 -5 -22 18 -8 7 5 11 14 7 20 -4 6 -1 9 7 5 23 -8 57 49 70
118 9 51 12 57 15 31 2 -17 -2 -50 -8 -72z m-746 53 c3 -8 2 -12 -4 -9 -6 3
-10 10 -10 16 0 14 7 11 14 -7z m-251 -61 c-9 -25 -10 -23 -9 20 1 35 3 42 10
28 5 -11 4 -31 -1 -48z m49 -5 l-11 -33 6 39 c4 28 2 37 -6 32 -6 -4 -11 0
-11 11 0 16 1 16 17 1 13 -14 14 -23 5 -50z m298 31 c0 -28 -15 -23 -16 6 -1
14 2 22 7 19 5 -3 9 -14 9 -25z m625 -8 c-3 -16 -12 -35 -20 -41 -11 -9 -12
-7 -8 10 3 11 9 23 14 26 5 3 9 15 9 26 0 12 3 19 6 15 3 -3 3 -19 -1 -36z
m-698 -13 c-3 -8 -6 -5 -6 6 -1 11 2 17 5 13 3 -3 4 -12 1 -19z m-37 2 c8 -5
11 -10 5 -10 -5 0 -17 5 -25 10 -8 5 -10 10 -5 10 6 0 17 -5 25 -10z m100 -20
c0 -5 -4 -10 -10 -10 -5 0 -10 5 -10 10 0 6 5 10 10 10 6 0 10 -4 10 -10z
m-259 -41 c-6 -16 -10 -18 -10 -7 -1 22 12 55 16 42 2 -6 -1 -22 -6 -35z m-65
-12 c-2 -12 -7 -31 -11 -42 -6 -19 -6 -19 8 -2 13 16 15 16 21 2 3 -9 -1 -23
-9 -31 -8 -9 -15 -19 -15 -24 0 -10 -72 -80 -83 -80 -4 0 -5 5 -2 10 3 6 0 10
-7 10 -8 1 -4 9 10 19 26 23 72 116 72 149 0 13 4 20 10 17 6 -3 8 -16 6 -28z
m369 -35 c-3 -3 -11 0 -18 7 -9 10 -8 11 6 5 10 -3 15 -9 12 -12z m855 -2 c0
-5 -5 -10 -11 -10 -5 0 -7 5 -4 10 3 6 8 10 11 10 2 0 4 -4 4 -10z m-455 -34
c-42 -18 -111 -28 -98 -15 13 13 66 27 103 28 24 0 24 0 -5 -13z m-330 -14
c-3 -3 -11 0 -18 7 -9 10 -8 11 6 5 10 -3 15 -9 12 -12z m68 -9 c-7 -2 -19 -2
-25 0 -7 3 -2 5 12 5 14 0 19 -2 13 -5z m125 0 c-15 -2 -42 -2 -60 0 -18 2 -6
4 27 4 33 0 48 -2 33 -4z m609 -15 c-3 -8 -6 -5 -6 6 -1 11 2 17 5 13 3 -3 4
-12 1 -19z m37 -3 c-9 -14 -19 -23 -22 -20 -5 4 26 45 35 45 2 0 -4 -11 -13
-25z m-827 9 c-3 -3 -12 -4 -19 -1 -8 3 -5 6 6 6 11 1 17 -2 13 -5z m893 -6
c0 -22 -15 -38 -38 -43 -26 -5 -26 -4 -10 30 11 25 48 35 48 13z m-1750 -18
c0 -5 -4 -10 -10 -10 -5 0 -10 5 -10 10 0 6 5 10 10 10 6 0 10 -4 10 -10z
m1702 -90 c-26 -24 -28 -35 -7 -26 8 3 15 1 15 -4 0 -6 -9 -10 -20 -10 -11 0
-20 -4 -20 -10 0 -5 -5 -10 -10 -10 -19 0 -5 34 25 61 16 15 32 25 34 23 3 -2
-5 -13 -17 -24z m58 20 c0 -5 -5 -10 -11 -10 -5 0 -7 5 -4 10 3 6 8 10 11 10
2 0 4 -4 4 -10z m-1606 -11 c-25 -10 -124 -11 -124 -1 0 4 32 7 71 8 41 0 63
-3 53 -7z m306 -43 c0 -2 -8 -10 -17 -17 -16 -13 -17 -12 -4 4 13 16 21 21 21
13z m445 -46 c3 -5 1 -10 -4 -10 -6 0 -11 5 -11 10 0 6 2 10 4 10 3 0 8 -4 11
-10z m-505 -26 c-20 -51 -14 -64 30 -64 42 0 70 -12 103 -44 19 -18 19 -19 2
-33 -23 -16 -35 -17 -35 -2 0 5 5 7 10 4 18 -11 11 11 -10 30 -11 10 -26 15
-36 11 -9 -3 -23 -1 -30 5 -11 9 -14 8 -14 -5 0 -11 5 -14 12 -10 8 5 9 2 5
-10 -4 -10 -7 -23 -8 -29 0 -7 -4 -2 -9 10 -6 14 -15 21 -24 17 -8 -3 -17 0
-21 6 -11 18 -8 104 4 108 6 2 11 10 11 18 0 8 4 14 10 14 6 0 6 -9 0 -26z
m1261 -14 c-35 -33 -51 -38 -51 -16 0 17 36 41 63 43 17 2 15 -2 -12 -27z
m-754 -22 c-3 -7 -5 -2 -5 12 0 14 2 19 5 13 2 -7 2 -19 0 -25z m-90 -14 c25
-7 37 -30 21 -40 -7 -4 -8 -3 -4 4 4 7 -7 14 -30 18 -48 9 -109 -18 -99 -44 5
-14 4 -15 -7 -4 -16 16 -2 42 33 59 26 14 52 16 86 7z m-342 -64 c3 -5 1 -10
-4 -10 -6 0 -11 5 -11 10 0 6 2 10 4 10 3 0 8 -4 11 -10z m-514 -102 c7 -40
22 -96 34 -123 14 -32 21 -64 18 -85 -4 -28 -2 -32 7 -20 9 12 10 10 6 -12 -4
-16 -2 -28 4 -28 5 0 10 -9 10 -20 0 -11 5 -20 10 -20 6 0 10 -7 10 -16 0 -8
7 -22 15 -30 8 -8 21 -37 29 -65 14 -47 35 -79 52 -79 5 0 3 5 -4 12 -7 7 -12
19 -12 27 1 14 2 14 13 0 7 -9 22 -19 35 -23 15 -5 22 -15 22 -32 0 -14 7 -38
15 -54 15 -28 14 -30 -4 -30 -15 0 -18 5 -14 21 4 16 2 20 -8 17 -9 -3 -13
-16 -11 -34 4 -37 9 -41 32 -26 17 10 20 10 20 -3 0 -8 -7 -15 -15 -15 -19 0
-19 -24 0 -40 9 -7 13 -15 11 -18 -3 -2 9 -25 25 -49 23 -33 28 -48 20 -56 -8
-8 -11 -7 -11 5 0 20 -24 30 -39 15 -8 -8 -11 -5 -11 13 -1 28 -23 63 -33 53
-10 -9 -9 -83 1 -83 8 0 32 -58 32 -76 0 -5 -7 -1 -14 9 -14 17 -15 17 -22 -5
-10 -29 -12 -42 -20 -98 -12 -85 -26 -79 -19 8 4 59 2 82 -5 77 -12 -8 -5 82
10 125 18 50 10 170 -11 170 -5 0 -9 13 -9 29 0 16 -7 36 -15 45 -8 8 -15 17
-15 21 0 13 -54 120 -62 123 -4 2 -8 9 -8 16 0 7 -9 31 -21 55 -11 23 -21 57
-23 74 -1 18 -7 43 -13 57 -10 23 -25 102 -37 203 -9 67 12 39 25 -35z m65
-55 c-11 -11 -19 6 -11 24 8 17 8 17 12 0 3 -10 2 -21 -1 -24z m138 -129 c6
-24 2 -43 -8 -33 -11 10 -17 59 -8 59 5 0 13 -12 16 -26z m-26 -16 c-2 -6 -10
-14 -16 -16 -7 -2 -10 2 -6 12 7 18 28 22 22 4z m7 -45 c-15 -36 -17 -53 -7
-53 6 0 13 8 15 18 3 9 5 2 6 -16 1 -30 -1 -33 -21 -26 -29 9 -38 22 -38 58 0
28 1 29 15 10 14 -19 14 -18 15 4 0 12 5 22 11 22 7 0 8 -7 4 -17z m860 8 c-6
-5 -26 -11 -45 -15 -35 -5 -35 -5 5 9 50 17 51 17 40 6z m495 -20 c0 -5 -7
-11 -14 -14 -10 -4 -13 -1 -9 9 6 15 23 19 23 5z m-760 -41 c-16 -11 -40 -13
-40 -5 0 8 44 24 50 18 2 -2 -2 -8 -10 -13z m63 13 c-7 -2 -19 -2 -25 0 -7 3
-2 5 12 5 14 0 19 -2 13 -5z m-238 -13 c4 -6 -14 -9 -47 -8 l-53 1 45 7 c25 4
46 8 47 8 1 1 5 -2 8 -8z m936 -23 c-8 -8 -11 -7 -11 4 0 20 13 34 18 19 3 -7
-1 -17 -7 -23z m-1117 8 c-10 -8 -23 -14 -29 -14 -5 0 -1 6 9 14 11 8 24 15
30 15 5 0 1 -7 -10 -15z m269 8 c-13 -2 -33 -2 -45 0 -13 2 -3 4 22 4 25 0 35
-2 23 -4z m-323 -23 c0 -5 -5 -10 -11 -10 -5 0 -7 5 -4 10 3 6 8 10 11 10 2 0
4 -4 4 -10z m430 0 c0 -5 -5 -10 -11 -10 -5 0 -7 5 -4 10 3 6 8 10 11 10 2 0
4 -4 4 -10z m-571 -55 c6 3 11 13 11 21 0 8 5 14 10 14 14 0 12 -11 -5 -34
-22 -30 -19 -66 5 -66 11 0 20 -7 20 -16 0 -10 -4 -12 -12 -7 -13 8 -18 9 -38
12 -5 0 -10 14 -10 30 0 20 -8 34 -25 45 -14 9 -25 26 -25 38 0 20 3 19 29
-11 16 -18 34 -30 40 -26z m271 41 c0 -2 -9 -6 -20 -9 -11 -3 -18 -1 -14 4 5
9 34 13 34 5z m95 -6 c3 -6 -1 -7 -9 -4 -18 7 -21 14 -7 14 6 0 13 -4 16 -10z
m-215 -10 c0 -5 -5 -10 -11 -10 -5 0 -7 5 -4 10 3 6 8 10 11 10 2 0 4 -4 4
-10z m1130 -95 c-3 -30 -3 -56 2 -57 4 -2 2 -22 -3 -45 -8 -28 -15 -40 -24
-37 -24 10 -45 -38 -40 -89 3 -25 0 -49 -5 -52 -11 -7 -14 13 -11 59 2 16 -3
32 -9 36 -16 10 -3 50 16 50 8 0 13 4 10 9 -3 4 4 26 15 47 11 22 18 50 15 64
-3 14 -3 19 0 13 3 -7 10 -13 15 -13 6 0 8 4 5 9 -6 9 9 61 17 61 2 0 0 -25
-3 -55z m-1315 36 c3 -5 1 -12 -5 -16 -5 -3 -10 1 -10 9 0 18 6 21 15 7z
m1245 -51 c0 -13 -1 -13 -10 0 -5 8 -10 22 -10 30 0 13 1 13 10 0 5 -8 10 -22
10 -30z m69 -186 c-9 -11 -8 -14 6 -14 16 0 17 -7 11 -67 -4 -38 -8 -73 -8
-80 -1 -7 -5 -10 -10 -7 -4 3 -8 0 -8 -7 0 -19 -15 0 -30 39 -11 28 -10 35 4
50 12 15 14 25 6 53 -6 18 -9 45 -9 59 1 17 3 19 6 8 7 -26 20 -22 29 10 l8
27 4 -28 c2 -16 -2 -35 -9 -43z m-1129 -204 c0 -5 -4 -10 -10 -10 -5 0 -10 5
-10 10 0 6 5 10 10 10 6 0 10 -4 10 -10z m1105 1 c3 -5 1 -12 -5 -16 -5 -3
-10 1 -10 9 0 18 6 21 15 7z m-1165 -27 c0 -8 -5 -12 -10 -9 -6 4 -8 11 -5 16
9 14 15 11 15 -7z m873 1 c-3 -9 -8 -14 -10 -11 -3 3 -2 9 2 15 9 16 15 13 8
-4z m277 -15 c0 -5 -5 -10 -11 -10 -5 0 -7 5 -4 10 3 6 8 10 11 10 2 0 4 -4 4
-10z m-1035 -10 c3 -5 1 -10 -4 -10 -6 0 -11 5 -11 10 0 6 2 10 4 10 3 0 8 -4
11 -10z m162 -6 c-3 -3 -12 -4 -19 -1 -8 3 -5 6 6 6 11 1 17 -2 13 -5z m-307
-24 c0 -5 -2 -10 -4 -10 -3 0 -8 5 -11 10 -3 6 -1 10 4 10 6 0 11 -4 11 -10z
m-120 -79 c0 -31 -5 -53 -15 -61 -8 -7 -17 -27 -21 -46 -5 -25 -13 -36 -30
-40 -13 -3 -24 -12 -24 -19 0 -7 -7 -18 -15 -25 -16 -13 -18 -8 -9 28 4 12 13
22 21 22 8 0 21 17 29 38 8 20 19 45 24 54 15 26 12 31 -12 25 -20 -5 -21 -5
-6 7 9 7 20 24 23 39 12 47 35 33 35 -22z m375 29 c3 -6 -1 -7 -9 -4 -18 7
-21 14 -7 14 6 0 13 -4 16 -10z m1173 -28 c2 -7 -2 -10 -12 -6 -9 3 -16 11
-16 16 0 13 23 5 28 -10z m-1081 -8 c-3 -3 -12 -4 -19 -1 -8 3 -5 6 6 6 11 1
17 -2 13 -5z m1053 -19 c7 -9 8 -15 2 -15 -5 0 -12 7 -16 15 -3 8 -4 15 -2 15
2 0 9 -7 16 -15z m-1837 -62 c-7 -2 -19 -2 -25 0 -7 3 -2 5 12 5 14 0 19 -2
13 -5z m-867 -18 c-18 -14 -66 -21 -66 -10 0 5 57 23 75 24 6 0 1 -6 -9 -14z
m-194 -32 c4 -16 -2 -18 -46 -15 -42 3 -55 0 -70 -17 -11 -12 -27 -21 -36 -21
-9 0 -25 -9 -35 -20 -24 -26 -30 -25 -31 5 -2 20 5 26 35 36 20 6 43 17 51 24
22 18 40 23 86 24 32 1 43 -3 46 -16z m513 -17 c25 -23 61 -113 50 -124 -12
-13 -31 23 -34 64 -1 5 -9 19 -18 30 -37 40 -45 54 -35 54 6 0 23 -11 37 -24z
m-19 -74 c8 -18 14 -39 14 -47 0 -9 8 -34 19 -58 27 -62 39 -97 47 -139 4 -25
11 -37 22 -37 10 0 35 -3 57 -6 25 -4 60 -1 95 9 l55 16 -52 -4 c-30 -3 -53
-1 -53 4 0 13 84 13 108 1 9 -5 31 -15 47 -22 22 -9 26 -13 13 -16 -9 -2 -27
1 -39 7 -12 7 -24 8 -28 3 -10 -14 -102 -31 -154 -27 l-48 3 24 -39 c13 -22
40 -58 61 -81 46 -51 39 -65 -10 -18 -19 19 -32 26 -29 17 4 -10 11 -18 16
-18 5 0 9 -5 9 -12 0 -7 16 -29 36 -49 27 -27 32 -37 18 -36 -19 2 -87 71 -97
100 -4 9 -17 21 -30 26 -14 5 -34 22 -46 38 -11 15 -26 34 -31 41 -6 7 -8 16
-5 21 3 5 0 13 -6 17 -13 8 -31 -16 -24 -33 7 -20 -9 -15 -23 7 -10 16 -10 20
0 20 9 0 9 3 -2 9 -8 6 -18 8 -22 5 -4 -3 -19 3 -33 12 -14 9 -34 14 -45 11
-11 -3 -20 -1 -20 3 0 5 8 11 18 13 13 4 13 5 -4 6 -12 0 -35 8 -50 16 -16 8
-42 15 -58 15 -16 0 -27 3 -23 6 3 4 27 6 52 6 25 -1 45 3 45 8 0 6 -4 10 -10
10 -5 0 -10 5 -10 10 0 20 19 9 36 -20 11 -18 29 -32 48 -36 17 -3 36 -10 41
-14 6 -4 28 -13 50 -19 66 -20 86 -33 80 -51 -3 -11 3 -20 18 -27 l23 -11 -31
97 c-29 87 -35 96 -59 99 -14 2 -26 7 -26 12 0 4 12 7 26 5 20 -2 24 1 18 14
-4 9 -15 39 -25 66 l-18 50 -68 -3 c-82 -4 -79 3 8 22 35 8 57 14 48 15 -9 1
-23 9 -30 18 -12 15 -12 16 4 10 13 -5 17 -1 18 16 0 21 1 21 11 -3 5 -14 16
-40 24 -58z m368 72 c20 -8 21 -24 2 -24 -8 0 -17 -13 -21 -29 -3 -16 -15 -37
-26 -47 -10 -9 -19 -22 -19 -28 0 -15 -39 -39 -68 -42 -13 -2 -36 -11 -50 -21
-46 -31 -71 -42 -77 -34 -2 5 25 23 60 42 63 33 75 44 55 51 -6 2 -6 8 0 18 8
12 11 11 16 -7 4 -13 10 -23 14 -23 15 0 80 94 80 115 0 32 8 39 34 29z m504
-17 c2 -9 -2 -17 -9 -17 -7 0 -9 3 -6 7 4 3 1 13 -6 21 -10 13 -9 14 3 10 8
-2 16 -12 18 -21z m80 -7 c6 0 12 -5 12 -11 0 -5 -5 -7 -12 -3 -8 5 -9 -2 -4
-27 6 -31 5 -32 -8 -14 -9 11 -16 24 -16 29 0 6 -10 20 -22 33 l-23 24 30 -15
c17 -9 36 -16 43 -16z m-1308 -32 c0 -15 -33 -8 -66 13 -19 11 -34 24 -34 29
0 11 99 -32 100 -42z m-396 -13 c-10 -8 -25 -15 -31 -15 -7 0 -13 -7 -13 -16
0 -8 -4 -12 -10 -9 -5 3 -10 -1 -10 -9 0 -9 -4 -16 -10 -16 -23 0 -70 -67 -70
-101 0 -9 44 -3 65 10 6 3 20 4 32 3 29 -4 38 29 18 68 -20 39 -5 39 17 0 21
-38 6 -91 -27 -88 -29 3 -105 -13 -111 -23 -14 -23 -26 -6 -19 28 17 92 98
174 179 182 6 1 1 -6 -10 -14z m1641 -26 c4 -11 10 -17 15 -14 12 7 0 -96 -13
-112 -6 -9 -4 -21 9 -39 57 -80 65 -98 39 -88 -8 4 -15 10 -15 16 0 20 -31 40
-53 35 -21 -6 -21 -5 -3 8 10 8 15 19 10 26 -4 7 -8 48 -8 93 l-1 81 -40 -4
c-53 -4 -80 -19 -146 -82 -52 -49 -120 -143 -91 -125 7 4 12 3 12 -2 0 -6 -7
-13 -16 -16 -12 -4 -14 -13 -10 -32 4 -16 3 -23 -3 -20 -16 10 -22 -11 -25
-79 -2 -50 -9 -73 -29 -104 -15 -23 -27 -45 -27 -51 0 -15 27 -12 44 6 9 8 16
11 16 4 0 -6 -11 -16 -25 -22 -14 -6 -25 -14 -25 -18 0 -4 -25 -15 -55 -25
-30 -9 -55 -21 -55 -25 0 -5 -12 -10 -27 -12 l-26 -3 41 -45 c23 -24 42 -49
42 -55 -1 -11 -80 75 -80 87 0 4 -9 10 -20 13 -53 17 15 54 97 54 34 0 81 25
66 34 -10 7 -9 74 1 99 4 9 14 14 22 11 8 -3 14 1 15 8 5 82 11 114 30 165 21
55 54 115 89 157 24 29 106 87 124 87 9 0 16 4 16 9 0 5 14 9 30 9 17 -1 33 2
37 5 9 9 31 -11 38 -34z m-339 -191 c-14 -55 -30 -106 -37 -112 -13 -13 -7 29
16 104 7 25 19 86 27 135 l13 90 3 -58 c2 -37 -6 -94 -22 -159z m1664 182 c0
-5 -4 -10 -10 -10 -5 0 -10 5 -10 10 0 6 5 10 10 10 6 0 10 -4 10 -10z m-2260
-16 c26 -7 40 -21 40 -39 0 -6 -3 -5 -8 1 -13 19 -50 34 -86 34 -20 0 -36 5
-36 10 0 11 44 8 90 -6z m2690 -5 c0 -6 -4 -7 -10 -4 -5 3 -10 11 -10 16 0 6
5 7 10 4 6 -3 10 -11 10 -16z m185 -41 c5 -5 4 -8 -3 -8 -16 0 -82 43 -82 53
0 8 63 -25 85 -45z m-3110 32 c3 -5 -1 -10 -9 -10 -8 0 -18 5 -21 10 -3 6 1
10 9 10 8 0 18 -4 21 -10z m361 -47 c-10 -10 -19 5 -10 18 6 11 8 11 12 0 2
-7 1 -15 -2 -18z m36 -5 c-7 -7 -12 -8 -12 -2 0 14 12 26 19 19 2 -3 -1 -11
-7 -17z m2069 -11 c-6 -6 -11 -20 -12 -31 0 -12 -3 -15 -6 -8 -2 6 1 26 9 42
7 17 15 25 17 19 2 -6 -2 -16 -8 -22z m109 24 c0 -6 -4 -13 -10 -16 -5 -3 -10
1 -10 9 0 9 5 16 10 16 6 0 10 -4 10 -9z m229 -33 c1 -5 -3 -8 -9 -8 -5 0 -10
12 -9 28 0 24 1 25 9 7 5 -11 9 -23 9 -27z m161 10 c0 -6 -7 -5 -15 2 -8 7
-15 17 -15 22 0 6 7 5 15 -2 8 -7 15 -17 15 -22z m-2590 -30 c0 -5 -4 -8 -10
-8 -5 0 -10 10 -10 23 0 18 2 19 10 7 5 -8 10 -18 10 -22z m925 22 c3 -5 -1
-10 -10 -10 -9 0 -13 5 -10 10 3 6 8 10 10 10 2 0 7 -4 10 -10z m-1687 -98
c12 -12 22 -27 22 -33 0 -5 4 -7 10 -4 18 11 82 -48 101 -93 22 -51 22 -52 9
-52 -5 0 -10 5 -10 11 0 12 -52 79 -62 79 -4 0 5 -20 19 -45 13 -25 20 -45 15
-45 -11 0 -49 56 -81 118 -12 24 -39 61 -61 84 -21 23 -36 46 -33 50 3 5 15
-4 26 -19 12 -16 32 -39 45 -51z m3783 38 c56 -18 97 -40 76 -40 -12 0 -130
41 -147 51 -26 15 5 10 71 -11z m-470 -65 c31 -25 105 -125 120 -162 36 -87
60 -133 68 -128 10 6 71 -51 71 -66 0 -5 4 -9 10 -9 17 0 112 -99 105 -110
-11 -18 -33 -11 -65 20 -17 16 -35 30 -41 30 -6 0 -8 4 -5 9 3 4 -11 17 -32
27 -20 10 -46 29 -57 42 -20 23 -21 23 -45 5 -33 -25 -81 -45 -89 -38 -3 3 0
9 6 13 7 4 28 20 47 36 l36 28 -19 36 c-11 21 -29 57 -42 82 -13 25 -32 62
-42 82 -11 21 -32 49 -49 63 -16 14 -26 29 -23 35 3 5 0 10 -9 10 -8 0 -17 -6
-20 -12 -3 -9 -8 -8 -16 5 -8 12 -19 16 -33 12 -21 -6 -21 -5 1 8 12 7 20 16
17 19 -15 14 84 -20 106 -37z m-3527 26 c5 -8 -39 -21 -72 -21 -23 0 -2 17 28
23 14 2 28 5 32 6 4 0 9 -3 12 -8z m1311 0 c-6 -5 -28 -12 -50 -15 l-40 -6 40
14 c50 17 62 19 50 7z m-1200 -11 c4 -6 -7 -10 -27 -9 -27 0 -30 2 -13 9 27
12 33 12 40 0z m1032 4 c-3 -3 -12 -4 -19 -1 -8 3 -5 6 6 6 11 1 17 -2 13 -5z
m2833 -5 c0 -6 -9 -9 -20 -6 -12 3 -24 -1 -29 -11 -12 -21 -24 -11 -15 12 7
18 64 23 64 5z m148 -10 c9 -8 42 -37 72 -65 30 -29 71 -64 90 -80 19 -15 54
-46 78 -68 38 -37 51 -42 120 -53 l77 -12 -77 5 c-67 4 -77 3 -72 -11 3 -8 10
-15 14 -15 5 0 27 -19 50 -41 23 -23 58 -50 78 -60 34 -17 35 -18 11 -19 -34
0 -114 65 -249 204 -52 52 -80 69 -80 46 0 -5 4 -10 9 -10 5 0 11 -7 15 -15 7
-19 1 -19 -19 1 -9 10 -13 24 -9 36 4 14 -1 24 -15 34 -12 9 -21 21 -21 29 0
7 -18 28 -40 45 l-40 32 -21 -24 c-11 -12 -18 -18 -15 -13 2 6 2 15 -2 20 -10
14 -49 35 -66 35 -8 0 -17 -6 -19 -12 -3 -7 -6 -3 -6 9 -1 20 3 21 59 18 33
-2 68 -9 78 -16z m-787 -22 c-10 -9 -11 -8 -5 6 3 10 9 15 12 12 3 -3 0 -11
-7 -18z m-341 -1 c0 -3 -4 -8 -10 -11 -5 -3 -10 -1 -10 4 0 6 5 11 10 11 6 0
10 -2 10 -4z m843 -10 c3 -8 -13 -31 -40 -55 -46 -41 -67 -49 -78 -31 -3 6 1
10 11 10 9 0 35 16 56 36 32 29 36 35 17 29 -13 -4 -28 -11 -34 -15 -5 -5 -29
-13 -52 -19 -24 -7 -43 -16 -43 -21 0 -19 -36 -10 -37 9 -1 15 7 19 45 24 26
3 67 15 92 26 54 25 56 25 63 7z m187 -6 c0 -5 -7 -10 -16 -10 -8 0 -25 -5
-37 -12 -12 -7 -34 -13 -50 -14 -23 -1 -26 1 -16 13 7 7 17 12 24 10 6 -3 22
1 36 9 29 16 59 18 59 4z m-3960 -42 c27 -18 47 -36 44 -40 -7 -12 -21 -10
-36 5 -21 21 -77 51 -83 45 -3 -3 35 -46 83 -96 49 -50 103 -115 121 -144 17
-29 38 -63 47 -75 10 -14 12 -23 5 -23 -6 0 -11 4 -11 9 0 5 -6 16 -13 23 -7
7 -24 29 -37 48 -13 19 -30 41 -37 48 -7 7 -13 17 -13 22 0 5 -34 43 -76 84
-52 52 -80 73 -92 70 -15 -5 -15 -4 -2 5 13 9 13 12 1 20 -7 5 -10 14 -7 20
13 20 56 11 106 -21z m487 -40 c-15 -29 -29 -70 -32 -90 -3 -21 -10 -38 -15
-38 -15 0 4 78 35 154 7 16 5 18 -9 13 -10 -4 -31 -7 -47 -7 -16 0 -29 -4 -29
-9 0 -5 8 -8 17 -7 14 1 18 -8 20 -42 2 -26 -1 -41 -7 -37 -6 3 -10 19 -10 36
0 19 -5 29 -14 29 -21 0 -30 20 -17 33 15 15 113 35 125 25 5 -4 -2 -30 -17
-60z m1126 -15 c-30 -30 -92 -65 -106 -60 -6 3 9 14 34 25 48 21 78 56 81 94
1 15 3 12 5 -9 3 -22 -2 -38 -14 -50z m1269 55 c-7 -7 -12 -8 -12 -2 0 14 12
26 19 19 2 -3 -1 -11 -7 -17z m924 0 c-3 -7 -9 -20 -12 -28 -3 -8 -20 -26 -36
-39 l-30 -25 7 25 c10 32 47 78 63 78 8 1 11 -5 8 -11z m-3056 -8 c0 -5 -5
-10 -11 -10 -5 0 -7 5 -4 10 3 6 8 10 11 10 2 0 4 -4 4 -10z m3270 -15 c-7 -9
-15 -13 -17 -11 -7 7 7 26 19 26 6 0 6 -6 -2 -15z m-587 -28 c9 -3 17 -12 17
-19 0 -10 -3 -9 -9 1 -8 12 -13 12 -24 3 -12 -10 -16 -9 -21 4 -3 8 -6 23 -6
32 1 15 2 15 13 1 7 -8 20 -18 30 -22z m-363 -13 c0 -8 -4 -14 -10 -14 -5 0
-10 9 -10 21 0 11 5 17 10 14 6 -3 10 -13 10 -21z m-2700 -34 c0 -5 -4 -10
-10 -10 -5 0 -10 5 -10 10 0 6 5 10 10 10 6 0 10 -4 10 -10z m2425 0 c-3 -5
-12 -10 -18 -10 -7 0 -6 4 3 10 19 12 23 12 15 0z m845 0 c0 -5 -4 -10 -10
-10 -5 0 -10 5 -10 10 0 6 5 10 10 10 6 0 10 -4 10 -10z m-3320 -12 c0 -4 -9
-8 -20 -8 -11 0 -20 4 -20 9 0 6 9 9 20 8 11 -1 20 -5 20 -9z m1684 -31 c2
-12 8 -44 11 -72 4 -27 15 -66 25 -85 10 -19 25 -48 33 -65 8 -16 37 -55 65
-86 51 -56 71 -89 32 -54 -11 10 -22 16 -25 14 -2 -3 -1 -29 4 -59 9 -57 5
-84 -10 -74 -5 3 -9 -9 -9 -26 0 -18 -4 -29 -10 -25 -6 4 -10 51 -9 110 1 99
-1 106 -27 139 -16 19 -29 34 -31 33 -1 -2 7 -48 18 -103 11 -54 22 -139 24
-189 4 -78 3 -83 -5 -40 -5 28 -14 73 -20 100 -13 70 -41 242 -46 290 -2 22
-9 42 -14 43 -6 2 -10 18 -11 35 -1 18 -5 43 -9 57 -7 22 -8 22 -10 5 -1 -11
-2 -28 -1 -37 1 -10 -2 -18 -7 -18 -14 0 -23 123 -10 131 17 11 36 0 42 -24z
m1173 11 c-3 -8 -6 -5 -6 6 -1 11 2 17 5 13 3 -3 4 -12 1 -19z m-1687 7 c0 -5
-55 -35 -65 -35 -13 0 8 22 29 30 25 10 36 12 36 5z m1496 -28 c-15 -19 -26
-41 -26 -49 0 -9 -20 -42 -45 -73 -24 -32 -47 -66 -50 -76 -5 -16 -33 -34 -41
-26 -2 2 4 13 13 25 26 31 79 109 119 175 20 31 40 57 45 57 6 0 -1 -15 -15
-33z m-2643 -57 c8 -67 -7 -37 -17 35 -4 31 -3 44 2 35 5 -8 12 -40 15 -70z
m3081 64 c3 -8 10 -13 15 -10 10 7 46 -92 37 -101 -10 -10 -36 19 -36 40 0 11
-9 35 -21 53 -11 19 -16 34 -11 34 5 0 13 -7 16 -16z m-3264 -30 c0 -14 -3
-15 -17 -3 -10 7 -20 15 -22 16 -2 2 5 3 17 3 14 0 22 -6 22 -16z m2510 6 c-8
-5 -26 -9 -40 -9 -23 1 -23 2 5 9 43 11 52 11 35 0z m540 -43 c0 -5 -4 -5 -10
-2 -5 3 -10 14 -10 23 0 15 2 15 10 2 5 -8 10 -19 10 -23z m-3025 3 c3 -6 -1
-7 -9 -4 -18 7 -21 14 -7 14 6 0 13 -4 16 -10z m2045 -10 c0 -5 -2 -10 -4 -10
-3 0 -8 5 -11 10 -3 6 -1 10 4 10 6 0 11 -4 11 -10z m2346 -4 c30 -22 13 -25
-31 -5 -35 16 -37 19 -14 19 14 0 34 -6 45 -14z m-4351 -38 l16 -33 -21 24
c-11 13 -20 27 -20 32 0 18 10 8 25 -23z m851 24 c14 -9 37 -52 28 -52 -7 0
-54 48 -54 56 0 6 14 5 26 -4z m1209 -2 c3 -5 -1 -10 -9 -10 -9 0 -16 5 -16
10 0 6 4 10 9 10 6 0 13 -4 16 -10z m964 -76 c17 -36 31 -69 31 -73 -1 -10
-57 92 -65 117 -12 42 3 22 34 -44z m-2064 -63 c-6 -5 -65 56 -65 67 0 3 16
-9 35 -28 19 -18 32 -36 30 -39z m-815 45 c0 -3 -4 -8 -10 -11 -5 -3 -10 -1
-10 4 0 6 5 11 10 11 6 0 10 -2 10 -4z m-80 -37 c0 -6 -4 -7 -10 -4 -5 3 -10
11 -10 16 0 6 5 7 10 4 6 -3 10 -11 10 -16z m4330 -4 c-3 -5 -10 -10 -15 -10
-6 0 -21 -8 -35 -18 -34 -23 -63 -23 -32 1 23 18 21 35 -3 26 -7 -3 -16 -1
-19 5 -5 7 13 10 51 8 35 -1 56 -6 53 -12z m-4396 -11 c10 -25 -1 -29 -14 -5
-6 12 -7 21 -1 21 5 0 12 -7 15 -16z m133 -6 c-3 -8 -6 -5 -6 6 -1 11 2 17 5
13 3 -3 4 -12 1 -19z m2557 -45 c-2 -20 -8 -41 -13 -47 -5 -6 -11 -20 -14 -31
-3 -13 -5 -9 -6 12 0 17 3 34 8 37 4 3 11 19 14 36 9 42 17 37 11 -7z m449 -5
c12 2 17 -1 13 -7 -12 -19 -34 -12 -68 20 l-33 31 35 -23 c19 -13 43 -22 53
-21z m317 28 c0 -3 -4 -8 -10 -11 -5 -3 -10 -1 -10 4 0 6 5 11 10 11 6 0 10
-2 10 -4z m420 -17 c25 -6 81 -14 125 -19 66 -6 103 -13 175 -35 3 -1 18 -7
34 -14 16 -6 30 -10 31 -9 1 2 11 23 23 48 l21 45 1 -32 c0 -18 -5 -33 -11
-33 -7 0 -10 -12 -7 -30 5 -35 2 -36 -52 -14 -23 9 -44 14 -47 10 -3 -3 -11 2
-18 10 -8 12 -39 19 -101 26 -49 5 -119 18 -155 29 -71 21 -115 24 -123 10 -3
-5 -14 -7 -25 -4 -11 3 -25 -4 -38 -20 -20 -26 -73 -57 -96 -57 -29 0 -123 34
-157 57 -45 30 -27 29 38 -2 97 -47 143 -43 213 19 16 15 34 24 38 21 5 -3 20
-1 33 4 12 5 30 8 38 6 8 -3 35 -9 60 -16z m-2781 -50 c45 -55 35 -58 -12 -3
-21 24 -34 44 -29 44 5 0 23 -18 41 -41z m2757 16 c22 -17 15 -19 -20 -5 -20
7 -28 6 -36 -8 -8 -12 -13 -14 -16 -4 -3 6 -11 10 -17 6 -7 -3 -3 2 7 10 25
20 56 20 82 1z m-122 -10 c-6 -16 -24 -21 -24 -7 0 11 11 22 21 22 5 0 6 -7 3
-15z m-3567 -52 c-4 -32 -8 -69 -10 -83 -3 -14 -8 -54 -11 -90 -4 -36 -13 -83
-21 -105 -7 -22 -19 -74 -26 -115 l-14 -75 -7 65 c-4 36 -9 83 -12 105 l-5 40
12 -43 12 -42 17 57 c9 32 19 81 22 108 7 63 39 235 45 235 2 0 1 -26 -2 -57z
m-497 17 c0 -5 -4 -10 -10 -10 -5 0 -10 5 -10 10 0 6 5 10 10 10 6 0 10 -4 10
-10z m4033 -10 c-5 -20 -43 -29 -43 -10 0 6 7 10 15 10 8 0 15 5 15 10 0 6 4
10 9 10 5 0 7 -9 4 -20z m-3858 0 c3 -5 1 -10 -4 -10 -6 0 -11 5 -11 10 0 6 2
10 4 10 3 0 8 -4 11 -10z m4623 -25 c-6 -14 -13 -23 -15 -21 -5 5 15 46 22 46
3 0 -1 -11 -7 -25z m-253 5 c3 -5 2 -10 -4 -10 -5 0 -13 5 -16 10 -3 6 -2 10
4 10 5 0 13 -4 16 -10z m405 -35 c0 -8 -2 -15 -4 -15 -2 0 -6 7 -10 15 -3 8
-1 15 4 15 6 0 10 -7 10 -15z m-1988 -27 c-8 -8 -9 -4 -5 13 4 13 8 18 11 10
2 -7 -1 -18 -6 -23z m-2846 -29 c49 -38 243 -241 244 -253 0 -5 -64 53 -142
129 -79 77 -147 143 -152 147 -6 5 -6 8 1 8 5 0 28 -14 49 -31z m1434 16 c19
-22 8 -25 -12 -3 -10 10 -14 18 -9 18 5 0 14 -7 21 -15z m-1375 -21 c14 -9 25
-21 25 -28 0 -6 14 -22 30 -35 17 -13 30 -28 30 -33 0 -14 -68 45 -69 60 -1 7
-12 18 -26 24 -14 6 -25 15 -25 20 0 12 8 10 35 -8z m4407 -6 c-5 -7 -12 -22
-14 -33 -5 -18 -6 -18 -13 -2 -10 23 1 47 21 47 12 0 14 -3 6 -12z m-1640 -23
c-2 -14 -9 -25 -14 -25 -5 0 -7 3 -5 8 2 4 7 15 10 25 9 25 15 21 9 -8z
m-1341 -12 c13 -16 12 -17 -3 -4 -17 13 -22 21 -14 21 2 0 10 -8 17 -17z
m-1497 -68 c72 -34 115 -69 102 -82 -4 -4 -20 6 -36 23 -15 17 -54 42 -87 54
-32 13 -69 30 -83 38 l-25 14 29 -7 c16 -3 61 -21 100 -40z m2820 36 c3 -5 -1
-14 -8 -20 -12 -10 -13 -8 -9 8 6 23 9 25 17 12z m1736 0 c0 -6 -4 -13 -10
-16 -5 -3 -10 1 -10 9 0 9 5 16 10 16 6 0 10 -4 10 -9z m304 -26 c20 -19 36
-40 36 -47 0 -6 -15 6 -34 27 -29 32 -38 37 -62 31 -24 -6 -26 -5 -15 8 20 24
36 20 75 -19z m-4669 -35 c3 -6 -1 -7 -9 -4 -18 7 -21 14 -7 14 6 0 13 -4 16
-10z m2604 -26 c-6 -16 -13 -24 -16 -17 -5 13 16 58 23 50 3 -2 -1 -17 -7 -33z
m1707 21 c-8 -8 -17 -24 -21 -34 -3 -11 -12 -21 -19 -24 -8 -3 -3 12 12 34 14
21 30 39 34 39 5 0 3 -7 -6 -15z m-4266 -35 c6 -11 9 -20 7 -20 -2 0 -12 9
-22 20 -10 11 -13 20 -7 20 6 0 16 -9 22 -20z m4171 -37 c-8 -15 -10 -15 -11
-2 0 17 10 32 18 25 2 -3 -1 -13 -7 -23z m299 17 c0 -5 -4 -10 -10 -10 -5 0
-10 5 -10 10 0 6 5 10 10 10 6 0 10 -4 10 -10z m92 -12 c-7 -7 -12 -8 -12 -2
0 14 12 26 19 19 2 -3 -1 -11 -7 -17z m-2017 2 c3 -5 1 -10 -4 -10 -6 0 -11 5
-11 10 0 6 2 10 4 10 3 0 8 -4 11 -10z m-2510 -10 c3 -5 1 -10 -4 -10 -6 0
-11 5 -11 10 0 6 2 10 4 10 3 0 8 -4 11 -10z m610 0 c3 -6 -1 -7 -9 -4 -18 7
-21 14 -7 14 6 0 13 -4 16 -10z m120 -10 c3 -5 -1 -10 -9 -10 -9 0 -16 5 -16
10 0 6 4 10 9 10 6 0 13 -4 16 -10z m3855 7 c0 -2 -10 -12 -21 -23 -22 -19
-22 -19 -10 4 10 18 31 31 31 19z m-4620 -114 c0 -4 -12 8 -27 27 -16 19 -35
42 -45 51 -9 10 -14 20 -11 23 6 5 83 -88 83 -101z m2525 50 c-9 -50 -17 -34
-9 18 4 24 9 38 12 31 2 -7 1 -29 -3 -49z m-1658 36 c-14 -8 -22 -8 -30 0 -8
8 -3 11 19 11 25 -1 27 -2 11 -11z m3286 -4 c-3 -9 -8 -14 -10 -11 -3 3 -2 9
2 15 9 16 15 13 8 -4z m-4093 -58 c0 -5 -4 -5 -10 -2 -5 3 -10 14 -10 23 0 15
2 15 10 2 5 -8 10 -19 10 -23z m4330 23 c0 -5 -5 -10 -11 -10 -5 0 -7 5 -4 10
3 6 8 10 11 10 2 0 4 -4 4 -10z m-3235 -20 c3 -6 -1 -7 -9 -4 -18 7 -21 14 -7
14 6 0 13 -4 16 -10z m50 -20 c3 -5 2 -10 -4 -10 -5 0 -13 5 -16 10 -3 6 -2
10 4 10 5 0 13 -4 16 -10z m1286 -73 c-13 -13 -15 11 -4 40 7 16 8 15 11 -6 2
-13 -1 -28 -7 -34z m1824 31 c-11 -6 -30 -22 -42 -35 -12 -12 -28 -23 -35 -23
-7 1 5 16 26 35 22 19 46 35 55 35 12 -1 11 -3 -4 -12z m-1825 -67 c0 -6 -4
-13 -10 -16 -5 -3 -10 1 -10 9 0 9 5 16 10 16 6 0 10 -4 10 -9z m-39 -68 c-8
-15 -10 -15 -11 -2 0 17 10 32 18 25 2 -3 -1 -13 -7 -23z"/>
<path d="M2065 3150 c-10 -11 -13 -20 -7 -20 6 0 16 9 22 20 6 11 9 20 7 20
-2 0 -12 -9 -22 -20z"/>
<path d="M2121 2874 c0 -11 3 -14 6 -6 3 7 2 16 -1 19 -3 4 -6 -2 -5 -13z"/>
<path d="M3191 2044 c0 -11 3 -14 6 -6 3 7 2 16 -1 19 -3 4 -6 -2 -5 -13z"/>
<path d="M3160 1991 c0 -6 5 -13 10 -16 6 -3 10 1 10 9 0 9 -4 16 -10 16 -5 0
-10 -4 -10 -9z"/>
<path d="M1080 1120 c0 -5 5 -10 11 -10 5 0 7 5 4 10 -3 6 -8 10 -11 10 -2 0
-4 -4 -4 -10z"/>
<path d="M1862 1395 c0 -16 2 -22 5 -12 2 9 2 23 0 30 -3 6 -5 -1 -5 -18z"/>
<path d="M1318 893 c7 -3 16 -2 19 1 4 3 -2 6 -13 5 -11 0 -14 -3 -6 -6z"/>
<path d="M3630 1195 c13 -14 26 -23 28 -20 5 5 -36 45 -46 45 -3 0 5 -11 18
-25z"/>
<path d="M3660 1151 c0 -5 4 -13 10 -16 13 -8 60 -103 60 -121 0 -8 5 -14 10
-14 12 0 12 -2 -3 40 -19 52 -77 137 -77 111z"/>
<path d="M3840 901 c0 -6 4 -13 10 -16 6 -3 7 1 4 9 -7 18 -14 21 -14 7z"/>
<path d="M3910 831 c0 -10 53 -51 66 -51 4 0 -8 14 -26 30 -37 33 -40 34 -40
21z"/>
<path d="M2638 5113 c7 -3 16 -2 19 1 4 3 -2 6 -13 5 -11 0 -14 -3 -6 -6z"/>
<path d="M1561 3680 c0 -15 -7 -32 -13 -38 -10 -10 -10 -15 2 -22 12 -7 16 -4
18 15 2 14 1 35 -1 48 -4 20 -4 20 -6 -3z"/>
<path d="M1601 3624 c0 -11 3 -14 6 -6 3 7 2 16 -1 19 -3 4 -6 -2 -5 -13z"/>
<path d="M1580 3420 c-8 -5 -12 -12 -9 -15 4 -3 12 1 19 10 14 17 11 19 -10 5z"/>
<path d="M1517 3385 c-8 -20 -4 -29 11 -24 5 2 6 13 2 23 -6 19 -7 19 -13 1z"/>
<path d="M1558 3349 c-11 -6 -18 -22 -18 -40 0 -37 42 -129 71 -155 l22 -19
-7 40 c-4 22 -9 73 -13 113 -6 76 -15 85 -55 61z"/>
<path d="M3543 3203 c-15 -5 -17 -23 -4 -23 5 0 11 7 15 15 3 8 4 15 3 14 -1
0 -8 -3 -14 -6z"/>
<path d="M1696 2896 c-6 -26 1 -56 14 -56 7 0 2 69 -5 78 -2 2 -5 -8 -9 -22z"/>
<path d="M1951 1673 c0 -5 4 -17 9 -28 8 -18 9 -17 9 8 1 15 -3 27 -9 27 -5 0
-10 -3 -9 -7z"/>
<path d="M3226 1044 c-17 -12 -17 -14 -4 -14 9 0 20 5 23 11 11 17 2 18 -19 3z"/>
<path d="M4824 693 c-21 -27 -43 -51 -48 -55 -6 -4 -8 -9 -5 -12 5 -5 119 99
119 108 0 20 -33 -1 -66 -41z"/>
<path d="M5084 15 c-18 -15 -18 -15 5 -13 14 2 26 9 29 16 5 17 -10 15 -34 -3z"/>
</g>
</svg>
